<svg xmlns="http://www.w3.org/2000/svg" width="360" height="360" viewBox="0 0 360 360" version="1.1">
	<path d="M 170.929 97.304 C 164.522 99.121, 157.982 103.171, 153.569 108.055 C 149.570 112.482, 145.036 121.177, 144.994 124.500 C 144.960 127.285, 143.909 128.603, 141 129.509 C 134.500 131.535, 131.192 136.881, 132.413 143.390 C 133.096 147.028, 137.192 151.385, 141 152.522 C 143.931 153.398, 144.964 154.711, 144.985 157.590 C 145.013 161.389, 150.978 171.725, 155.602 175.987 C 162.955 182.765, 169.890 185.457, 180 185.457 C 190.110 185.457, 197.045 182.765, 204.398 175.987 C 209.022 171.725, 214.987 161.389, 215.015 157.590 C 215.036 154.711, 216.069 153.398, 219 152.522 C 222.600 151.447, 226.802 147.180, 227.531 143.859 C 228.899 137.631, 225.046 130.981, 219.223 129.520 C 216.141 128.746, 215.037 127.405, 215.015 124.410 C 214.987 120.611, 209.022 110.275, 204.398 106.013 C 195.487 97.799, 181.771 94.230, 170.929 97.304 M 184.500 122.525 C 182.850 123.274, 179.048 124.414, 176.050 125.056 C 171.056 126.127, 170.468 126.061, 169.018 124.271 C 167.475 122.365, 167.226 122.358, 158.968 124.001 L 150.500 125.686 150.186 129.979 C 150.013 132.340, 150.259 134.659, 150.732 135.132 C 151.212 135.612, 153.321 135.111, 155.508 133.996 C 157.661 132.898, 160.467 132, 161.744 132 C 165.556 132, 170.416 134.517, 173.362 138.018 C 175.613 140.694, 176.852 141.308, 180 141.308 C 183.148 141.308, 184.387 140.694, 186.638 138.018 C 189.584 134.517, 194.444 132, 198.256 132 C 199.533 132, 202.314 132.885, 204.436 133.968 C 206.559 135.050, 208.679 135.698, 209.148 135.409 C 209.617 135.119, 210 132.932, 210 130.548 C 210 125.868, 209.062 125, 204.007 125 C 202.451 125, 198.326 124.106, 194.839 123.013 C 187.548 120.728, 188.372 120.766, 184.500 122.525 M 139.655 136.829 C 135.919 140.957, 138.607 147, 144.180 147 C 146.823 147, 147.147 146.708, 146.677 144.750 C 146.380 143.512, 145.831 140.813, 145.457 138.750 C 144.692 134.526, 142.420 133.774, 139.655 136.829 M 214.543 138.750 C 214.169 140.813, 213.620 143.512, 213.323 144.750 C 212.853 146.708, 213.177 147, 215.820 147 C 217.491 147, 219.564 146.293, 220.429 145.429 C 222.550 143.307, 222.415 138.685, 220.171 136.655 C 217.148 133.919, 215.293 134.609, 214.543 138.750 M 155.923 140.923 C 153.928 142.918, 153 144.848, 153 147 C 153 151.302, 157.698 156, 162 156 C 166.302 156, 171 151.302, 171 147 C 171 144.848, 170.072 142.918, 168.077 140.923 C 166.082 138.928, 164.152 138, 162 138 C 159.848 138, 157.918 138.928, 155.923 140.923 M 191.923 140.923 C 189.928 142.918, 189 144.848, 189 147 C 189 151.302, 193.698 156, 198 156 C 202.302 156, 207 151.302, 207 147 C 207 144.848, 206.072 142.918, 204.077 140.923 C 202.082 138.928, 200.152 138, 198 138 C 195.848 138, 193.918 138.928, 191.923 140.923 M 176.484 150.074 C 175.559 154.286, 170.629 159.637, 166.385 161.038 C 162.074 162.461, 157.061 161.623, 153.601 158.901 C 150.105 156.151, 150.226 158.117, 153.951 164.612 C 157.177 170.237, 161.111 173.948, 167.384 177.286 C 173.284 180.425, 186.716 180.425, 192.616 177.286 C 198.889 173.948, 202.823 170.237, 206.049 164.612 C 209.774 158.117, 209.895 156.151, 206.399 158.901 C 202.939 161.623, 197.926 162.461, 193.615 161.038 C 189.371 159.637, 184.441 154.286, 183.516 150.074 C 182.956 147.522, 182.359 147, 180 147 C 177.641 147, 177.044 147.522, 176.484 150.074 M 162 189.957 C 162 191.419, 160.723 191.802, 154.153 192.309 C 140.444 193.366, 129.035 199.085, 121.539 208.657 C 114.125 218.124, 104.732 235.735, 104.212 241.144 C 103.588 247.640, 106.056 253.914, 110.988 258.370 C 115.757 262.678, 120.239 263.987, 130.250 263.994 L 138 264 138 237.077 L 138 210.153 140.589 207.077 L 143.178 204 180 204 L 216.822 204 219.411 207.077 L 222 210.153 222 237.077 L 222 264 229.750 263.994 C 239.761 263.987, 244.243 262.678, 249.012 258.370 C 253.944 253.914, 256.412 247.640, 255.788 241.144 C 255.267 235.726, 245.817 218.017, 238.500 208.747 C 230.862 199.070, 219.526 193.364, 205.847 192.309 C 199.277 191.802, 198 191.419, 198 189.957 C 198 188.310, 197.649 188.319, 191.911 190.105 C 188.562 191.147, 183.202 192, 180 192 C 176.798 192, 171.438 191.147, 168.089 190.105 C 162.351 188.319, 162 188.310, 162 189.957 M 145.200 211.200 C 144.329 212.071, 144 219.467, 144 238.200 L 144 264 180 264 L 216 264 216 238.200 C 216 219.467, 215.671 212.071, 214.800 211.200 C 213.081 209.481, 146.919 209.481, 145.200 211.200 M 173.763 223.565 C 166.129 227.707, 166.254 240.494, 173.967 244.483 C 179.960 247.582, 187.651 245.509, 190.483 240.033 C 196.183 229.011, 184.653 217.656, 173.763 223.565 M 176 230 C 174.900 231.100, 174 232.900, 174 234 C 174 235.100, 174.900 236.900, 176 238 C 177.100 239.100, 178.900 240, 180 240 C 181.100 240, 182.900 239.100, 184 238 C 185.100 236.900, 186 235.100, 186 234 C 186 232.900, 185.100 231.100, 184 230 C 182.900 228.900, 181.100 228, 180 228 C 178.900 228, 177.100 228.900, 176 230" stroke="none" fill="#000000" fill-rule="evenodd"/>
</svg>